HIERARCHY
ROOT mixamorig7:Hips
{
	OFFSET 0.000000 99.793892 0.000000
	CHANNELS 6 Xposition Yposition Zposition Xrotation Yrotation Zrotation
	JOINT mixamorig7:Spine
	{
		OFFSET 0.000000 9.694397 -1.109700
		CHANNELS 3 Xrotation Yrotation Zrotation
		JOINT mixamorig7:Spine1
		{
			OFFSET 0.000000 11.310143 -1.294687
			CHANNELS 3 Xrotation Yrotation Zrotation
			JOINT mixamorig7:Spine2
			{
				OFFSET 0.000000 12.925888 -1.479643
				CHANNELS 3 Xrotation Yrotation Zrotation
				JOINT mixamorig7:Neck
				{
					OFFSET 0.000000 14.541641 -1.664600
					CHANNELS 3 Xrotation Yrotation Zrotation
					JOINT mixamorig7:Head
					{
						OFFSET 0.000000 6.944305 1.982500
						CHANNELS 3 Xrotation Yrotation Zrotation
						JOINT mixamorig7:HeadTop_End
						{
							OFFSET 0.000000 22.789597 6.506100
							CHANNELS 3 Xrotation Yrotation Zrotation
							End Site
							{
								OFFSET 0.000000 23.700119 0.000000
							}
						}
					}
				}
				JOINT mixamorig7:LeftShoulder
				{
					OFFSET 6.681300 12.786087 -1.621969
					CHANNELS 3 Xrotation Yrotation Zrotation
					JOINT mixamorig7:LeftArm
					{
						OFFSET 13.585576 -3.446136 0.085203
						CHANNELS 3 Xrotation Yrotation Zrotation
						JOINT mixamorig7:LeftForeArm
						{
							OFFSET 27.330299 0.000000 -0.000001
							CHANNELS 3 Xrotation Yrotation Zrotation
							JOINT mixamorig7:LeftHand
							{
								OFFSET 20.888802 0.000000 -0.000001
								CHANNELS 3 Xrotation Yrotation Zrotation
								JOINT mixamorig7:LeftHandThumb1
								{
									OFFSET 3.934731 -1.328445 2.632622
									CHANNELS 3 Xrotation Yrotation Zrotation
									JOINT mixamorig7:LeftHandThumb2
									{
										OFFSET 3.046997 -1.759186 1.759186
										CHANNELS 3 Xrotation Yrotation Zrotation
										JOINT mixamorig7:LeftHandThumb3
										{
											OFFSET 2.671288 -1.542267 1.542270
											CHANNELS 3 Xrotation Yrotation Zrotation
											JOINT mixamorig7:LeftHandThumb4
											{
												OFFSET 2.059540 -1.189072 1.189075
												CHANNELS 3 Xrotation Yrotation Zrotation
												End Site
												{
													OFFSET 1.871078 -1.157242 1.493111
												}
											}
										}
									}
								}
								JOINT mixamorig7:LeftHandIndex1
								{
									OFFSET 11.356102 -0.357925 2.480554
									CHANNELS 3 Xrotation Yrotation Zrotation
									JOINT mixamorig7:LeftHandIndex2
									{
										OFFSET 3.230431 0.000000 -0.000000
										CHANNELS 3 Xrotation Yrotation Zrotation
										JOINT mixamorig7:LeftHandIndex3
										{
											OFFSET 3.093842 0.000000 -0.000000
											CHANNELS 3 Xrotation Yrotation Zrotation
											JOINT mixamorig7:LeftHandIndex4
											{
												OFFSET 2.710304 0.000000 -0.000000
												CHANNELS 3 Xrotation Yrotation Zrotation
												End Site
												{
													OFFSET 2.710297 0.000031 0.002100
												}
											}
										}
									}
								}
								JOINT mixamorig7:LeftHandMiddle1
								{
									OFFSET 11.227951 0.000000 -0.000001
									CHANNELS 3 Xrotation Yrotation Zrotation
									JOINT mixamorig7:LeftHandMiddle2
									{
										OFFSET 3.465431 0.000000 0.000000
										CHANNELS 3 Xrotation Yrotation Zrotation
										JOINT mixamorig7:LeftHandMiddle3
										{
											OFFSET 3.340118 0.000000 0.000000
											CHANNELS 3 Xrotation Yrotation Zrotation
											JOINT mixamorig7:LeftHandMiddle4
											{
												OFFSET 2.993599 0.000000 0.000000
												CHANNELS 3 Xrotation Yrotation Zrotation
												End Site
												{
													OFFSET 2.993607 -0.000061 -0.003500
												}
											}
										}
									}
								}
								JOINT mixamorig7:LeftHandRing1
								{
									OFFSET 11.215385 -0.016006 -2.298895
									CHANNELS 3 Xrotation Yrotation Zrotation
									JOINT mixamorig7:LeftHandRing2
									{
										OFFSET 2.891907 0.000000 0.000000
										CHANNELS 3 Xrotation Yrotation Zrotation
										JOINT mixamorig7:LeftHandRing3
										{
											OFFSET 2.705215 0.000000 0.000000
											CHANNELS 3 Xrotation Yrotation Zrotation
											JOINT mixamorig7:LeftHandRing4
											{
												OFFSET 2.307037 0.000000 0.000000
												CHANNELS 3 Xrotation Yrotation Zrotation
												End Site
												{
													OFFSET 2.307007 0.000351 0.012295
												}
											}
										}
									}
								}
								JOINT mixamorig7:LeftHandPinky1
								{
									OFFSET 9.863464 -0.351425 -4.395246
									CHANNELS 3 Xrotation Yrotation Zrotation
									JOINT mixamorig7:LeftHandPinky2
									{
										OFFSET 2.647736 0.000000 0.000000
										CHANNELS 3 Xrotation Yrotation Zrotation
										JOINT mixamorig7:LeftHandPinky3
										{
											OFFSET 2.219719 0.000000 0.000000
											CHANNELS 3 Xrotation Yrotation Zrotation
											JOINT mixamorig7:LeftHandPinky4
											{
												OFFSET 1.855507 0.000000 0.000000
												CHANNELS 3 Xrotation Yrotation Zrotation
												End Site
												{
													OFFSET 1.855507 -0.000122 -0.005599
												}
											}
										}
									}
								}
							}
						}
					}
				}
				JOINT mixamorig7:RightShoulder
				{
					OFFSET -6.681300 12.786102 -1.707222
					CHANNELS 3 Xrotation Yrotation Zrotation
					JOINT mixamorig7:RightArm
					{
						OFFSET -13.585576 -3.446152 -0.085196
						CHANNELS 3 Xrotation Yrotation Zrotation
						JOINT mixamorig7:RightForeArm
						{
							OFFSET -27.318214 0.000000 0.000002
							CHANNELS 3 Xrotation Yrotation Zrotation
							JOINT mixamorig7:RightHand
							{
								OFFSET -20.889801 0.000000 0.000001
								CHANNELS 3 Xrotation Yrotation Zrotation
								JOINT mixamorig7:RightHandThumb1
								{
									OFFSET -4.042946 -1.401764 2.740883
									CHANNELS 3 Xrotation Yrotation Zrotation
									JOINT mixamorig7:RightHandThumb2
									{
										OFFSET -3.149010 -1.818085 1.818083
										CHANNELS 3 Xrotation Yrotation Zrotation
										JOINT mixamorig7:RightHandThumb3
										{
											OFFSET -2.605377 -1.504211 1.504218
											CHANNELS 3 Xrotation Yrotation Zrotation
											JOINT mixamorig7:RightHandThumb4
											{
												OFFSET -2.034538 -1.174637 1.174643
												CHANNELS 3 Xrotation Yrotation Zrotation
												End Site
												{
													OFFSET -1.808716 -1.141098 1.524937
												}
											}
										}
									}
								}
								JOINT mixamorig7:RightHandIndex1
								{
									OFFSET -11.498108 -0.223465 2.596514
									CHANNELS 3 Xrotation Yrotation Zrotation
									JOINT mixamorig7:RightHandIndex2
									{
										OFFSET -3.230072 0.000000 0.000000
										CHANNELS 3 Xrotation Yrotation Zrotation
										JOINT mixamorig7:RightHandIndex3
										{
											OFFSET -3.008400 0.000000 0.000000
											CHANNELS 3 Xrotation Yrotation Zrotation
											JOINT mixamorig7:RightHandIndex4
											{
												OFFSET -2.577469 0.000000 0.000000
												CHANNELS 3 Xrotation Yrotation Zrotation
												End Site
												{
													OFFSET -2.577400 -0.000381 -0.019196
												}
											}
										}
									}
								}
								JOINT mixamorig7:RightHandMiddle1
								{
									OFFSET -11.291573 0.000000 0.000000
									CHANNELS 3 Xrotation Yrotation Zrotation
									JOINT mixamorig7:RightHandMiddle2
									{
										OFFSET -3.513855 0.000000 0.000000
										CHANNELS 3 Xrotation Yrotation Zrotation
										JOINT mixamorig7:RightHandMiddle3
										{
											OFFSET -3.299538 0.000000 0.000000
											CHANNELS 3 Xrotation Yrotation Zrotation
											JOINT mixamorig7:RightHandMiddle4
											{
												OFFSET -2.888702 0.000000 0.000000
												CHANNELS 3 Xrotation Yrotation Zrotation
												End Site
												{
													OFFSET -2.888702 -0.000076 -0.003599
												}
											}
										}
									}
								}
								JOINT mixamorig7:RightHandRing1
								{
									OFFSET -11.158524 -0.069885 -2.264038
									CHANNELS 3 Xrotation Yrotation Zrotation
									JOINT mixamorig7:RightHandRing2
									{
										OFFSET -2.878105 0.000000 0.000000
										CHANNELS 3 Xrotation Yrotation Zrotation
										JOINT mixamorig7:RightHandRing3
										{
											OFFSET -2.739204 0.000000 0.000000
											CHANNELS 3 Xrotation Yrotation Zrotation
											JOINT mixamorig7:RightHandRing4
											{
												OFFSET -2.335304 0.000000 0.000000
												CHANNELS 3 Xrotation Yrotation Zrotation
												End Site
												{
													OFFSET -2.335297 0.000061 0.001999
												}
											}
										}
									}
								}
								JOINT mixamorig7:RightHandPinky1
								{
									OFFSET -9.865288 -0.197952 -4.417972
									CHANNELS 3 Xrotation Yrotation Zrotation
									JOINT mixamorig7:RightHandPinky2
									{
										OFFSET -2.659409 0.000000 0.000000
										CHANNELS 3 Xrotation Yrotation Zrotation
										JOINT mixamorig7:RightHandPinky3
										{
											OFFSET -2.181625 0.000000 0.000000
											CHANNELS 3 Xrotation Yrotation Zrotation
											JOINT mixamorig7:RightHandPinky4
											{
												OFFSET -1.923111 0.000000 0.000000
												CHANNELS 3 Xrotation Yrotation Zrotation
												End Site
												{
													OFFSET -1.923103 0.000153 0.005198
												}
											}
										}
									}
								}
							}
						}
					}
				}
			}
		}
	}
	JOINT mixamorig7:LeftUpLeg
	{
		OFFSET 8.726300 -5.393196 -0.445400
		CHANNELS 3 Xrotation Yrotation Zrotation
		JOINT mixamorig7:LeftLeg
		{
			OFFSET 0.203112 -40.995728 -2.240422
			CHANNELS 3 Xrotation Yrotation Zrotation
			JOINT mixamorig7:LeftFoot
			{
				OFFSET -0.203116 -41.811745 -4.341125
				CHANNELS 3 Xrotation Yrotation Zrotation
				JOINT mixamorig7:LeftToeBase
				{
					OFFSET 2.022961 -9.567262 15.917597
					CHANNELS 3 Xrotation Yrotation Zrotation
					JOINT mixamorig7:LeftToe_End
					{
						OFFSET 0.919500 0.587269 6.993709
						CHANNELS 3 Xrotation Yrotation Zrotation
						End Site
						{
							OFFSET 0.919500 0.587269 6.993710
						}
					}
				}
			}
		}
	}
	JOINT mixamorig7:RightUpLeg
	{
		OFFSET -8.726300 -5.393196 -0.458900
		CHANNELS 3 Xrotation Yrotation Zrotation
		JOINT mixamorig7:RightLeg
		{
			OFFSET -0.203119 -40.995686 -2.183443
			CHANNELS 3 Xrotation Yrotation Zrotation
			JOINT mixamorig7:RightFoot
			{
				OFFSET 0.203109 -41.812000 -3.686646
				CHANNELS 3 Xrotation Yrotation Zrotation
				JOINT mixamorig7:RightToeBase
				{
					OFFSET -2.022940 -9.566534 15.362668
					CHANNELS 3 Xrotation Yrotation Zrotation
					JOINT mixamorig7:RightToe_End
					{
						OFFSET -0.919481 0.587567 7.048032
						CHANNELS 3 Xrotation Yrotation Zrotation
						End Site
						{
							OFFSET -0.919481 0.587567 7.048031
						}
					}
				}
			}
		}
	}
}
MOTION
Frames: 4
Frame Time: 0.016667
206.633713 96.547729 -0.253599 -177.562201 -0.081855 175.819970 1.722049 0.032200 1.059817 3.446062 0.185904 0.712666 3.446062 0.185904 0.712666 -0.272398 -0.519576 1.270703 -0.272400 -0.519576 1.270702 0.000001 0.000000 -0.000000 0.578249 -9.717385 -9.762095 -1.539219 -9.338509 -71.362506 31.607578 -5.086962 3.641908 -5.496959 -6.525415 -2.933866 44.596197 5.219616 31.157995 2.426650 20.932109 10.996114 -4.919781 -10.077572 -2.388540 -0.000000 0.000003 0.000002 0.151997 4.943536 -1.638194 2.820284 1.655572 -38.330919 4.413806 -2.297981 -5.968669 -0.000002 -0.000001 -0.000000 0.398755 6.167431 -16.901293 5.414344 0.826609 -39.294785 5.759540 -0.110567 -7.097920 -0.000001 0.000001 -0.000002 0.946360 8.272318 -29.052199 6.596249 1.106009 -36.045340 5.813664 -0.147300 -11.497877 0.000001 0.000001 -0.000001 0.962339 7.927129 -30.796042 9.105843 2.503049 -35.791397 9.816668 4.559748 -7.505639 -0.000001 0.000001 -0.000000 0.629032 2.929827 20.347079 -7.009354 19.459163 54.066275 24.200064 6.400556 -3.312625 -5.618447 10.328855 -4.389328 4.280778 -15.890135 -2.422269 1.836891 -18.253824 -10.474649 -2.576139 5.196135 1.002203 0.000001 0.000008 -0.000002 0.815692 -7.341127 29.157780 1.921651 0.060857 16.932199 4.528736 2.821029 11.169172 0.000003 0.000001 -0.000000 1.407141 -8.005374 40.252238 4.496520 0.856183 17.906996 6.072483 4.827167 12.436057 -0.000000 -0.000000 -0.000002 2.288422 -9.822531 52.036018 5.775684 0.626575 14.653882 6.114424 6.591886 12.764633 0.000001 0.000001 0.000003 0.338210 -8.339706 60.178044 8.289377 -0.760710 14.380699 10.669905 0.128433 12.856366 -0.000000 -0.000002 -0.000002 -28.442911 4.032288 4.464903 60.526514 10.802526 0.829645 -1.633868 -0.361549 6.186635 -8.182175 1.041880 -8.281020 -0.000002 0.000002 -0.000001 -12.579822 -4.215609 6.866453 26.743326 -10.145986 -0.104034 -11.891674 -0.034898 -1.402134 -0.157741 -0.005657 0.007882 -0.000001 -0.000003 -0.000000 
206.694427 96.664719 -1.604965 -177.822186 -0.056632 176.443853 1.697784 0.226536 0.941609 3.400670 0.521903 0.591534 3.400668 0.521903 0.591534 -0.295831 -0.529788 1.112396 -0.295816 -0.529787 1.112396 -0.000000 -0.000000 -0.000000 0.557907 -9.130587 -10.246198 -0.215864 -8.019274 -71.421676 31.562871 -5.003011 3.596330 -5.488544 -6.367353 -3.053581 44.596200 5.219616 31.157998 2.426649 20.932112 10.996110 -4.919780 -10.077572 -2.388534 -0.000000 0.000003 0.000002 0.152003 4.943536 -1.638194 2.820285 1.655572 -38.330916 4.413803 -2.297983 -5.968668 0.000003 -0.000001 -0.000002 0.398755 6.167432 -16.901289 5.414350 0.826609 -39.294785 5.759538 -0.110567 -7.097917 -0.000002 -0.000003 0.000002 0.946363 8.272317 -29.052203 6.596244 1.106007 -36.045340 5.813664 -0.147299 -11.497878 0.000001 0.000002 0.000000 0.962345 7.927130 -30.796039 9.105841 2.503050 -35.791393 9.816671 4.559751 -7.505641 -0.000000 -0.000003 0.000002 0.578252 3.534927 19.651942 -8.096308 20.771527 53.670004 22.845548 7.627596 -3.562693 -5.567713 10.043253 -4.478881 4.280780 -15.890136 -2.422274 1.836893 -18.253819 -10.474653 -2.576135 5.196132 1.002198 0.000001 0.000006 -0.000002 0.815692 -7.341123 29.157777 1.921646 0.060855 16.932201 4.528734 2.821031 11.169176 0.000003 -0.000001 -0.000002 1.407143 -8.005372 40.252238 4.496521 0.856182 17.906999 6.072477 4.827171 12.436061 -0.000003 -0.000003 0.000001 2.288419 -9.822535 52.036015 5.775675 0.626578 14.653884 6.114422 6.591883 12.764630 -0.000001 -0.000001 0.000001 0.338216 -8.339703 60.178044 8.289381 -0.760715 14.380699 10.669907 0.128428 12.856363 -0.000000 0.000000 0.000003 -29.438552 4.102296 3.461893 56.862561 11.577943 0.827858 -2.044031 -0.319292 6.090966 -7.839504 0.956780 -7.847011 -0.000001 0.000000 -0.000000 -11.724986 -4.258537 6.292737 26.268689 -9.697558 -0.087503 -12.548938 -0.015840 -1.416305 -0.115248 -0.006041 0.007059 -0.000001 -0.000003 -0.000000 
206.760773 96.789986 -2.939814 -178.082880 -0.032407 177.037902 1.679978 0.402152 0.819613 3.367273 0.827525 0.486062 3.367273 0.827526 0.486062 -0.318030 -0.543477 0.963391 -0.318017 -0.543477 0.963392 -0.000000 -0.000000 -0.000000 0.543727 -8.577598 -10.673177 1.267066 -6.677826 -71.524860 30.966353 -5.245336 3.661102 -5.491312 -6.314410 -3.058369 44.596197 5.219617 31.157995 2.426651 20.932109 10.996112 -4.919781 -10.077572 -2.388538 -0.000000 0.000003 0.000004 0.151994 4.943536 -1.638194 2.820287 1.655572 -38.330912 4.413804 -2.297980 -5.968668 0.000001 -0.000001 -0.000001 0.398752 6.167431 -16.901288 5.414349 0.826610 -39.294782 5.759541 -0.110560 -7.097914 -0.000002 -0.000001 0.000005 0.946364 8.272318 -29.052203 6.596248 1.106008 -36.045336 5.813664 -0.147294 -11.497880 -0.000000 -0.000002 -0.000001 0.962339 7.927130 -30.796046 9.105836 2.503050 -35.791400 9.816668 4.559750 -7.505638 -0.000001 0.000002 -0.000001 0.538492 4.070662 19.063890 -9.165201 21.921711 53.130515 21.642059 8.675200 -3.741859 -5.515024 9.699541 -4.506328 4.280780 -15.890138 -2.422273 1.836893 -18.253826 -10.474653 -2.576133 5.196134 1.002196 0.000000 0.000001 -0.000001 0.815689 -7.341128 29.157777 1.921643 0.060856 16.932203 4.528729 2.821028 11.169172 -0.000000 -0.000000 0.000002 1.407142 -8.005377 40.252231 4.496524 0.856182 17.906997 6.072479 4.827172 12.436055 -0.000000 -0.000001 0.000001 2.288417 -9.822539 52.036011 5.775679 0.626578 14.653886 6.114422 6.591886 12.764629 0.000002 0.000002 -0.000002 0.338210 -8.339710 60.178044 8.289380 -0.760715 14.380695 10.669905 0.128427 12.856364 0.000001 -0.000004 -0.000001 -30.128856 4.162541 2.346212 52.536791 12.376946 0.797191 -1.701845 -0.291031 6.106917 -7.251647 0.874113 -7.404451 -0.000001 -0.000002 0.000000 -10.761864 -4.298945 5.696302 25.623815 -9.351081 -0.074643 -13.139998 0.008383 -1.371225 -0.045653 -0.003152 -0.002818 -0.000001 -0.000001 0.000000 
206.829666 96.921524 -4.264462 -178.348479 -0.012526 177.596325 1.665265 0.562384 0.697622 3.339112 1.111059 0.396079 3.339112 1.111059 0.396079 -0.338615 -0.562607 0.829235 -0.338620 -0.562607 0.829235 0.000001 -0.000000 0.000000 0.534404 -8.081286 -11.034704 2.860654 -5.405124 -71.651840 30.014132 -5.727075 3.799742 -5.503366 -6.352665 -2.977880 44.596197 5.219620 31.157995 2.426651 20.932114 10.996114 -4.919782 -10.077571 -2.388541 0.000000 0.000004 0.000000 0.151989 4.943537 -1.638194 2.820284 1.655572 -38.330916 4.413802 -2.297983 -5.968670 0.000002 -0.000001 0.000001 0.398755 6.167432 -16.901289 5.414338 0.826608 -39.294782 5.759537 -0.110562 -7.097920 -0.000000 0.000002 -0.000001 0.946364 8.272319 -29.052196 6.596248 1.106009 -36.045333 5.813663 -0.147294 -11.497880 0.000001 0.000002 0.000002 0.962342 7.927130 -30.796039 9.105836 2.503050 -35.791390 9.816666 4.559753 -7.505638 0.000000 0.000002 0.000001 0.507337 4.524369 18.595248 -10.186736 22.953331 52.469718 20.533413 9.585454 -3.865169 -5.457618 9.350051 -4.564739 4.280783 -15.890143 -2.422272 1.836893 -18.253822 -10.474659 -2.576138 5.196132 1.002196 -0.000005 -0.000000 -0.000004 0.815698 -7.341121 29.157777 1.921641 0.060855 16.932199 4.528733 2.821031 11.169174 -0.000000 0.000002 0.000000 1.407143 -8.005376 40.252238 4.496518 0.856182 17.906999 6.072480 4.827167 12.436057 -0.000003 0.000001 -0.000004 2.288421 -9.822534 52.036011 5.775681 0.626575 14.653882 6.114422 6.591886 12.764629 0.000000 0.000002 0.000001 0.338216 -8.339705 60.178044 8.289375 -0.760714 14.380700 10.669905 0.128435 12.856373 -0.000001 0.000003 -0.000001 -30.607225 4.156460 1.184471 47.661067 13.102886 0.751481 -0.672932 -0.279199 6.348955 -6.341548 0.741204 -6.684862 0.000000 0.000002 -0.000000 -9.693184 -4.307689 5.135746 24.768469 -9.127727 -0.069679 -13.633778 0.033030 -1.288336 -0.000056 0.001922 0.000000 -0.000000 0.000000 -0.000000 
